<svg xmlns="http://www.w3.org/2000/svg" width="59.839" height="44.87" viewBox="0 0 59.839 44.87">
  <g id="Group_13" data-name="Group 13" transform="translate(-991.281 131.281)">
    <path id="Path_1" data-name="Path 1" d="M991.285-86.411c0-.668.009-1.312,0-1.955-.006-.278.163-.271.35-.271l3.689,0c1.313,0,2.626,0,3.939.012.274,0,.368-.079.367-.367q-.015-7.432-.01-14.865,0-7.88,0-15.76,0-1.486,0-2.973c0-.117.011-.235.019-.4h16.335v-8.3h26.793v42.655h2.008c1.97,0,3.94.009,5.909-.008.353,0,.448.108.433.446-.026.582-.007,1.167-.007,1.776Zm49.138-42.66h-.629q-5.5.005-10.993.01-5.013,0-10.026-.017c-.338,0-.445.085-.444.437.008,4.345,0,8.69,0,13.035q0,6.482.01,12.963,0,6.786-.009,13.571c0,.378.118.457.466.453,1.755-.018,3.509-.016,5.264-.016q3.581,0,7.162.008,3.814,0,7.627,0h1.576Zm-38.465,24.433q0,7.808-.007,15.616c0,.322.1.407.4.4.967-.016,1.934-.005,2.9-.006,3.366,0,6.733-.01,10.1-.006.744,0,.633.033.633-.623q0-7.879-.005-15.759,0-7.611.014-15.221c0-.347-.1-.44-.445-.439q-6.554.017-13.108.006c-.485,0-.486-.006-.486.486Q1001.958-112.411,1001.958-104.638Z" transform="translate(0)" fill="#777"/>
    <path id="Path_2" data-name="Path 2" d="M1427.392,328.527v5.735c-.123.006-.237.017-.351.017-1.683,0-3.366,0-5.048.006-.287,0-.4-.072-.394-.38.014-1.707.011-3.413.007-5.12,0-.2.046-.31.274-.309,1.8.007,3.6.007,5.406.011A.481.481,0,0,1,1427.392,328.527Z" transform="translate(-399.487 -426.818)" fill="#777"/>
    <path id="Path_3" data-name="Path 3" d="M1427.371,81.3v5.772h-.4c-1.658,0-3.315-.006-4.973.006-.3,0-.419-.065-.416-.394.016-1.681.01-3.363,0-5.045,0-.243.047-.375.332-.373,1.741.009,3.482,0,5.224.006A1.943,1.943,0,0,1,1427.371,81.3Z" transform="translate(-399.475 -197.314)" fill="#777"/>
    <path id="Path_4" data-name="Path 4" d="M1545.933,81.25c.847,0,1.694.009,2.54-.005.272,0,.38.07.378.358q-.015,2.558,0,5.116c0,.237-.06.339-.321.338q-2.576-.014-5.152,0c-.251,0-.332-.089-.331-.333q.01-2.558,0-5.116c0-.288.112-.366.384-.361C1544.264,81.259,1545.1,81.25,1545.933,81.25Z" transform="translate(-512.233 -197.299)" fill="#777"/>
    <path id="Path_5" data-name="Path 5" d="M1548.777,334.257h-2.567c-.931,0-1.863-.013-2.793.007-.312.006-.412-.08-.409-.4.016-1.695.016-3.39.008-5.085,0-.255.082-.328.329-.327q2.578.012,5.157,0c.229,0,.311.066.31.306-.007,1.707,0,3.414,0,5.121C1548.812,333.994,1548.791,334.109,1548.777,334.257Z" transform="translate(-512.198 -426.795)" fill="#777"/>
    <path id="Path_6" data-name="Path 6" d="M1427.391-36.529h-1.058c-1.444,0-2.888,0-4.332.008-.247,0-.4-.026-.4-.343.013-1.695.009-3.389,0-5.084,0-.243.051-.38.333-.379,1.742.007,3.485,0,5.227.006a1.367,1.367,0,0,1,.224.04Z" transform="translate(-399.493 -82.581)" fill="#777"/>
    <path id="Path_7" data-name="Path 7" d="M1545.922-36.574c-.836,0-1.672-.01-2.507.005-.277,0-.377-.074-.375-.363q.016-2.525,0-5.05c0-.29.086-.4.389-.4q2.507.017,5.014,0c.32,0,.407.1.405.41q-.019,2.525,0,5.05c0,.26-.073.357-.345.353C1547.641-36.583,1546.782-36.574,1545.922-36.574Z" transform="translate(-512.228 -82.531)" fill="#777"/>
    <path id="Path_8" data-name="Path 8" d="M1427.378,204.894v5.743c-.119.008-.233.023-.346.023-1.682,0-3.364-.006-5.045.008-.317,0-.4-.093-.4-.407.015-1.67.009-3.34.005-5.009,0-.226.01-.394.312-.392,1.765.008,3.53,0,5.3.007A1.4,1.4,0,0,1,1427.378,204.894Z" transform="translate(-399.477 -312.058)" fill="#777"/>
    <path id="Path_9" data-name="Path 9" d="M1545.938,210.641c-.847,0-1.695-.011-2.542.006-.29.006-.364-.1-.362-.372q.015-2.542,0-5.083c0-.26.08-.356.349-.354q2.542.014,5.083,0c.271,0,.377.069.375.359q-.017,2.542,0,5.083c0,.277-.077.373-.363.367C1547.632,210.63,1546.785,210.641,1545.938,210.641Z" transform="translate(-512.222 -312.037)" fill="#777"/>
    <path id="Path_10" data-name="Path 10" d="M1199.236,334.219v-5.745h.831c1.515,0,3.031.01,4.546,0,.3,0,.405.094.4.384-.01,1.694-.012,3.388-.019,5.081,0,.174-.01.336-.259.335q-2.7-.01-5.4-.011C1199.313,334.26,1199.292,334.243,1199.236,334.219Z" transform="translate(-193.056 -426.813)" fill="#777"/>
    <path id="Path_11" data-name="Path 11" d="M1198.957,87.053c0-.272,0-.543,0-.813,0-1.516.009-3.031,0-4.547,0-.279.053-.4.37-.4,1.671.015,3.342.013,5.012,0,.289,0,.406.081.4.382-.009,1.682,0,3.365,0,5.047,0,.208-.014.373-.3.372-1.766-.008-3.533,0-5.3-.007A1.2,1.2,0,0,1,1198.957,87.053Z" transform="translate(-192.797 -197.346)" fill="#777"/>
    <path id="Path_12" data-name="Path 12" d="M1199.264,210.677v-5.765c.126-.008.241-.021.355-.021,1.659,0,3.319.008,4.978-.008.335,0,.437.108.435.43-.011,1.683-.008,3.366-.007,5.048,0,.19-.036.319-.273.319C1202.937,210.675,1201.124,210.677,1199.264,210.677Z" transform="translate(-193.082 -312.08)" fill="#777"/>
  </g>
</svg>
