<svg xmlns="http://www.w3.org/2000/svg" width="47.126" height="47.037" viewBox="0 0 47.126 47.037">
  <g id="Group_15" data-name="Group 15" transform="translate(-1152.376 73.696)">
    <path id="Path_15" data-name="Path 15" d="M1190.482-26.659h-14.911a1.766,1.766,0,0,1-1.2-1.98,4.11,4.11,0,0,0,0-.734,3.215,3.215,0,0,1,3.582-3.557c.621.045,1.247.007,1.894.007V-55.633a1.638,1.638,0,0,1-1.542-1.9c0-.582.014-1.164-.013-1.745a.44.44,0,0,0-.261-.32,2.373,2.373,0,0,1-2.089-2.633c0-.421,0-.842,0-1.245H1164.16v.526c0,1.944.015,3.889-.014,5.833-.008.513.037.922.593,1.107a.944.944,0,0,1,.256.192q4.2,3.431,8.4,6.866a3.364,3.364,0,0,1,.554.547,2.345,2.345,0,0,1-.224,3.063,2.315,2.315,0,0,1-3.1.188c-1.677-1.337-3.329-2.707-4.991-4.063l-2.245-1.83c-.111.082-.2.142-.28.209q-3.278,2.672-6.554,5.347c-1.682,1.376-3.3.991-4.138-.99,0-.012-.025-.017-.038-.025v-1.011a3.5,3.5,0,0,1,1.272-1.69c2.278-1.836,4.535-3.7,6.8-5.545.593-.483,1.186-.97,1.815-1.4a.6.6,0,0,0,.329-.569c-.011-2.112-.006-4.224-.006-6.336V-63.5h-.539c-2.545,0-5.091-.026-7.636.013a1.9,1.9,0,0,1-2.038-1.2v-3.858a1.817,1.817,0,0,1,1.964-1.233c6.99.023,13.981.014,20.971.015h.628c0-.478,0-.9,0-1.328a2.373,2.373,0,0,1,2.591-2.6q4.484,0,8.968,0a2.373,2.373,0,0,1,2.584,2.564c0,.438,0,.876,0,1.361.842,0,1.62.007,2.4-.008a.47.47,0,0,0,.291-.178,1.72,1.72,0,0,1,1.423-.611c1.088.009,2.178.038,3.265-.009a1.876,1.876,0,0,1,2.042,1.2v5.42a1.775,1.775,0,0,1-1.956,1.246c-1.118-.037-2.238-.016-3.357-.01a1.665,1.665,0,0,1-1.419-.613c-.053-.067-.136-.155-.206-.155-.819-.011-1.639-.007-2.482-.007,0,.548.011,1.022,0,1.5a2.341,2.341,0,0,1-2.091,2.4,2.633,2.633,0,0,0-.268.077v1.852c0,1.3-.307,1.714-1.538,2.062v22.7c.839,0,1.649-.018,2.458,0a3.053,3.053,0,0,1,2.953,2.646c.065.5.026,1.008.065,1.51A1.882,1.882,0,0,1,1190.482-26.659Zm-7.456-45.472q-2.231,0-4.462,0c-.794,0-1.056.257-1.057,1.037q0,4.454,0,8.907c0,.764.255,1.029,1.017,1.03q4.485.006,8.97,0c.744,0,1.007-.257,1.008-.99q.007-4.5,0-9c0-.726-.276-.984-1.014-.985Q1185.258-72.133,1183.026-72.13Zm-1.54,16.483v22.694h3.067V-55.648Zm8.557,27.4a2.653,2.653,0,0,0,.037-.326,13.336,13.336,0,0,0-.032-1.421,1.5,1.5,0,0,0-1.533-1.36q-5.52-.012-11.04,0a1.436,1.436,0,0,0-1.475,1.2,13.963,13.963,0,0,0-.018,1.906Zm-17.131-18.818a4.685,4.685,0,0,0-.569-.707q-4.154-3.415-8.326-6.807a.843.843,0,0,0-1.3.011l-6.052,4.941c-.8.649-1.6,1.291-2.384,1.949a.751.751,0,0,0-.137,1.131.789.789,0,0,0,1.115.073c.136-.1.263-.211.393-.317q3.52-2.883,7.04-5.767a.879.879,0,0,1,1.376.006q2.508,2.051,5.012,4.107,1.209.99,2.421,1.976a.7.7,0,0,0,.894.074A3.179,3.179,0,0,0,1172.912-47.061Zm21.109-17.275h3.874v-4.623h-3.874ZM1179.9-57.274h6.226v-2.274H1179.9Zm-3.993-7.811V-68.2c-.57,0-1.106-.022-1.639.012a.848.848,0,0,0-.53.256c-.6.676-1.165,1.377-1.743,2.07l-.649.777Zm-8.717-3.114c-.909,0-1.689-.01-2.469.01a.6.6,0,0,0-.371.21c-.425.483-.832.981-1.245,1.475-.377.452-.753.905-1.195,1.436.918,0,1.725,0,2.532-.005a.35.35,0,0,0,.232-.116C1165.487-66.158,1166.3-67.132,1167.187-68.2Zm-4.711,0c-.9,0-1.664-.013-2.43.011a.707.707,0,0,0-.444.244c-.631.729-1.244,1.475-1.861,2.216-.16.193-.315.391-.53.658.9,0,1.689,0,2.482,0a.352.352,0,0,0,.24-.1C1160.761-66.147,1161.581-67.129,1162.476-68.2Zm9.42,0c-.832,0-1.562-.021-2.289.013a.953.953,0,0,0-.607.288c-.709.8-1.387,1.634-2.073,2.457-.082.1-.147.21-.259.371.625,0,1.179-.044,1.722.012a1.461,1.461,0,0,0,1.465-.668C1170.469-66.553,1171.167-67.322,1171.9-68.2Zm-14.163.035h-3.763v3.095a4.751,4.751,0,0,0,.657-.006c.227-.033.528-.043.656-.188C1156.1-66.188,1156.887-67.15,1157.734-68.161Zm32.377-.013V-65.1h2.292v-3.073Z" transform="translate(0 0)" fill="#777"/>
    <path id="Path_16" data-name="Path 16" d="M1179.12,220.711a1.806,1.806,0,0,1-1.242-1.955q.044-5.83,0-11.66a2.28,2.28,0,0,1,.834-1.879c2.22-1.952,4.407-3.941,6.606-5.917a1.593,1.593,0,0,1,2.405,0q3.407,3.049,6.808,6.1a1.868,1.868,0,0,1,.629,1.506c-.011,3.948-.023,7.9.007,11.844a1.814,1.814,0,0,1-1.233,1.96Zm2.686-1.581v-.59q0-3.489,0-6.978a1.648,1.648,0,0,1,1.823-1.822q1.7-.011,3.4,0a1.649,1.649,0,0,1,1.845,1.841q0,3.535,0,7.07v.472h4.681c.009-.129.023-.233.023-.336,0-3.933.007-7.866-.009-11.8a.882.882,0,0,0-.287-.566q-3.079-2.8-6.182-5.565c-.19-.17-.382-.338-.585-.519-2.316,2.081-4.608,4.136-6.885,6.206a.788.788,0,0,0-.163.532q-.014,5.808-.006,11.615c0,.145.017.291.027.444Zm1.611-7.783v7.762h3.86v-7.8c-1.214,0-2.393,0-3.573,0A2.471,2.471,0,0,0,1183.417,211.347Z" transform="translate(-23.155 -247.369)" fill="#777"/>
    <path id="Path_17" data-name="Path 17" d="M1446.331-35.049c-.72,0-1.441,0-2.161,0a1.587,1.587,0,0,1-1.77-1.75c0-.459-.012-.918,0-1.376a1.563,1.563,0,0,1,1.585-1.571q2.344-.021,4.689,0a1.532,1.532,0,0,1,1.575,1.523,16.774,16.774,0,0,1-.007,1.7,1.5,1.5,0,0,1-1.522,1.468c-.8.02-1.594,0-2.39,0Zm2.319-1.591v-1.514h-4.645v1.514Z" transform="translate(-263.324 -30.814)" fill="#777"/>
  </g>
</svg>
