<svg xmlns="http://www.w3.org/2000/svg" width="55.774" height="57.617" viewBox="0 0 55.774 57.617">
  <g id="Group_17" data-name="Group 17" transform="translate(-1168.708 67.263)">
    <path id="Path_23" data-name="Path 23" d="M1271.721,64.078c-1.414-.183-2.009-.594-2.177-1.464s.2-1.491,1.254-2.1a16.942,16.942,0,0,0-2.344-4.265c-.593-.79-1.246-1.538-1.9-2.278a16.518,16.518,0,0,1-4.308-12.99,16.747,16.747,0,0,1,32.8-2.806A16.279,16.279,0,0,1,1291.3,53.8a22.537,22.537,0,0,0-4.309,6.727,1.746,1.746,0,0,1,1.241,2.147c-.271,1.119-1.16,1.412-2.286,1.352-.071,1.2-.153,2.354-.2,3.51a4.452,4.452,0,0,1-1.28,3.085A4.113,4.113,0,0,1,1281.5,71.9c-1.752.013-3.5.026-5.255,0a4.274,4.274,0,0,1-4.232-3.987c-.082-1.006-.124-2.014-.192-3.021C1271.8,64.628,1271.757,64.367,1271.721,64.078Zm8.878-3.51c.778,0,1.463-.02,2.146.009a.5.5,0,0,0,.566-.413,24.767,24.767,0,0,1,5.347-8.68,12.332,12.332,0,0,0,3.168-11.143A13.177,13.177,0,0,0,1271.108,32a12.666,12.666,0,0,0-5.46,9.959,12.8,12.8,0,0,0,3.788,10.048,20.643,20.643,0,0,1,4.755,7.709l.281.807h2.536a1.429,1.429,0,0,0,.038-.21c0-3.827.008-7.655-.008-11.482a1.158,1.158,0,0,0-.286-.645c-1.448-1.792-2.911-3.571-4.367-5.356a1.771,1.771,0,1,1,2.716-2.246c1.109,1.355,2.208,2.72,3.313,4.078.126.156.265.3.415.472,1.263-1.555,2.49-3.059,3.709-4.571a1.693,1.693,0,0,1,1.789-.733,1.747,1.747,0,0,1,.971,2.931q-2.113,2.625-4.274,5.211a1.768,1.768,0,0,0-.435,1.236c.018,3.351.011,6.7.012,10.054C1280.6,59.676,1280.6,60.09,1280.6,60.568Zm1.835,3.583h-6.968c.053,1.216.082,2.392.167,3.564.04.549.434.746.967.743,1.56-.011,3.12,0,4.679-.005.707,0,.954-.238.992-.95C1282.33,66.4,1282.378,65.3,1282.433,64.151Z" transform="translate(-82.307 -82.061)" fill="#777778" stroke="#fff" stroke-width="1"/>
    <path id="Path_24" data-name="Path 24" d="M1396.378-63.257c0,.571.014,1.142,0,1.713a1.79,1.79,0,0,1-1.81,1.869,1.782,1.782,0,0,1-1.729-1.888q-.025-1.655,0-3.312a1.768,1.768,0,0,1,1.781-1.888,1.773,1.773,0,0,1,1.76,1.907c.01.533,0,1.066,0,1.6Z" transform="translate(-198.009 0)" fill="#777778" stroke="#fff" stroke-width="1"/>
    <path id="Path_25" data-name="Path 25" d="M1172.786,156.8c.59,0,1.181-.013,1.77,0a1.766,1.766,0,0,1,.029,3.531q-1.826.045-3.654,0a1.767,1.767,0,0,1,.028-3.533c.609-.018,1.218,0,1.827,0Z" transform="translate(0 -197.958)" fill="#777778" stroke="#fff" stroke-width="1"/>
    <path id="Path_26" data-name="Path 26" d="M1589.19,160.324c-.59,0-1.181.014-1.77,0a1.767,1.767,0,0,1,.007-3.534c1.2-.019,2.4-.021,3.6,0a1.765,1.765,0,0,1,1.733,1.767,1.787,1.787,0,0,1-1.74,1.767C1590.409,160.342,1589.8,160.325,1589.19,160.324Z" transform="translate(-368.775 -197.938)" fill="#777778" stroke="#fff" stroke-width="1"/>
    <path id="Path_27" data-name="Path 27" d="M1529.829,2.14a3.6,3.6,0,0,1,.507-.924c.8-.868,1.646-1.693,2.495-2.512a1.7,1.7,0,0,1,2.5-.019,1.727,1.727,0,0,1-.025,2.5q-1.212,1.252-2.464,2.463a1.62,1.62,0,0,1-1.889.386A1.888,1.888,0,0,1,1529.829,2.14Z" transform="translate(-319.327 -57.478)" fill="#777778" stroke="#fff" stroke-width="1"/>
    <path id="Path_28" data-name="Path 28" d="M1240.358,2.269a2.013,2.013,0,0,1-1.127,1.686,1.551,1.551,0,0,1-1.854-.266Q1236,2.4,1234.708,1.026a1.694,1.694,0,0,1,.055-2.374,1.674,1.674,0,0,1,2.411-.088c.93.872,1.831,1.779,2.7,2.711A3.751,3.751,0,0,1,1240.358,2.269Z" transform="translate(-57.593 -57.429)" fill="#777778" stroke="#fff" stroke-width="1"/>
  </g>
</svg>
