<svg xmlns="http://www.w3.org/2000/svg" xmlns:xlink="http://www.w3.org/1999/xlink" width="50.318" height="49.143" viewBox="0 0 50.318 49.143">
  <defs>
    <clipPath id="clip-path">
      <rect id="Rectangle_1073" data-name="Rectangle 1073" width="50.318" height="49.143" transform="translate(0 0)" fill="#777"/>
    </clipPath>
  </defs>
  <g id="Group_10496" data-name="Group 10496" transform="translate(0 0)">
    <g id="Group_10495" data-name="Group 10495" clip-path="url(#clip-path)">
      <path id="Path_618" data-name="Path 618" d="M19.7,7.134A18.29,18.29,0,0,0,8.278,14.511,18.866,18.866,0,1,0,39.944,16.3l-1.485,1.451A16.861,16.861,0,1,1,9.9,15.677a16.318,16.318,0,0,1,10.2-6.584,16.739,16.739,0,0,1,11.123,1.493L32.68,9.1A18.728,18.728,0,0,0,19.7,7.134" fill="#777"/>
      <path id="Path_619" data-name="Path 619" d="M43.349,12.974l-1.475,1.441A21.5,21.5,0,0,1,20.282,46.891,21.525,21.525,0,1,1,34.575,7.169L36.016,5.7A23.515,23.515,0,0,0,4.578,39.553a23.367,23.367,0,0,0,15.4,9.316,23.986,23.986,0,0,0,3.594.273A23.516,23.516,0,0,0,43.349,12.974" fill="#777"/>
      <path id="Path_620" data-name="Path 620" d="M31.072,26.269a7.578,7.578,0,0,1-10.063,6.479,7.58,7.58,0,0,1,2.933-14.719l1.727-1.764a9.575,9.575,0,1,0,7.4,10.171,10.157,10.157,0,0,0-.256-3.166l-1.748,1.708a8.181,8.181,0,0,1,.011,1.291" fill="#777"/>
      <path id="Path_621" data-name="Path 621" d="M34.923,21.206a12.2,12.2,0,1,1-21.148-2.934,12.064,12.064,0,0,1,13.954-4.111l1.515-1.546a14.187,14.187,0,1,0,4.707,22.66,14.327,14.327,0,0,0,2.5-15.559Z" fill="#777"/>
      <path id="Path_622" data-name="Path 622" d="M23.528,30.511a4.91,4.91,0,0,1-1.064-9.7,4.953,4.953,0,0,1,1.959-.038l12.772-12.8c-.013.019,0-.023,0-.075.046-.347.07-.67.093-.993.024-.306.046-.613.082-.918A1.726,1.726,0,0,1,37.861,5Q40.205,2.71,42.548.458c.037-.035.08-.073.162-.139l.055-.044A.973.973,0,0,1,43.531,0a1,1,0,0,1,.87.678,1.026,1.026,0,0,1,.045.449l-.305,3.861,6.178-.48L48.794,6.431a3.1,3.1,0,0,1-.213.256Q46.388,8.961,44.2,11.216a1.934,1.934,0,0,1-1.09.547c-.336.041-.652.064-.968.086s-.6.044-.9.082a.2.2,0,0,0-.117.042c-4.222,4.209-8.5,8.473-12.763,12.744a4.912,4.912,0,0,1-4.831,5.794m.034-7.822a2.98,2.98,0,0,0-.66.073,2.908,2.908,0,1,0,3.473,2.2,1.528,1.528,0,0,1,.478-1.568c4.269-4.275,8.59-8.587,12.914-12.893a2.2,2.2,0,0,1,1.246-.56c.309-.04.646-.065.984-.089.284-.021.569-.041.852-.075.894-.95,1.824-1.92,2.765-2.9l-3.65.283.286-3.641q-1.461,1.411-2.9,2.818c-.024.224-.042.469-.06.713-.027.362-.054.724-.1,1.082a2.216,2.216,0,0,1-.522,1.194L25.742,22.281a1.546,1.546,0,0,1-1.628.464,2.587,2.587,0,0,0-.552-.056m4.681,2.143-.021.021a.1.1,0,0,0,.021-.021m.06-.393.018.083a.4.4,0,0,0-.018-.083m-3.71-3.633.035.008a.18.18,0,0,0-.035-.008" fill="#777"/>
    </g>
  </g>
</svg>
