<svg xmlns="http://www.w3.org/2000/svg" width="47.047" height="47.037" viewBox="0 0 47.047 47.037">
  <g id="Group_16" data-name="Group 16" transform="translate(-1008.204 218.2)">
    <path id="Path_18" data-name="Path 18" d="M1031.736-218.2a23.543,23.543,0,0,1,23.509,24.031,23.566,23.566,0,0,1-24.074,23,23.558,23.558,0,0,1-22.961-24.079A23.535,23.535,0,0,1,1031.736-218.2Zm-21.571,23.5a21.55,21.55,0,0,0,21.386,21.564,21.522,21.522,0,0,0,21.729-21.453,21.521,21.521,0,0,0-21.471-21.653A21.553,21.553,0,0,0,1010.165-194.7Z" transform="translate(0 0)" fill="#777778"/>
    <path id="Path_19" data-name="Path 19" d="M1093.353,3.59c-.288-.844-.56-1.627-.817-2.416a.331.331,0,0,1,.077-.276q3.506-3.474,7.028-6.933a.5.5,0,0,1,.36-.116c1.4.152,2.8.318,4.2.482,1.944.227,3.892.428,5.83.7a1.423,1.423,0,0,0,1.415-.511c1.015-1.114,2.092-2.172,3.151-3.246a.319.319,0,0,0,.063-.43,4.641,4.641,0,0,1,3.528-6.627,4.672,4.672,0,0,1,5.323,4.953,4.656,4.656,0,0,1-4.627,4.347,4.374,4.374,0,0,1-2.195-.558.258.258,0,0,0-.373.058c-1.446,1.49-2.9,2.971-4.343,4.464a.519.519,0,0,1-.486.18q-2.886-.345-5.774-.678c-1.594-.186-3.189-.367-4.783-.558a.534.534,0,0,0-.488.179q-3.432,3.4-6.875,6.8C1093.521,3.443,1093.469,3.486,1093.353,3.59Zm27.724-14.706a2.24,2.24,0,0,0-2.188-2.263,2.244,2.244,0,0,0-2.257,2.2,2.249,2.249,0,0,0,2.175,2.249A2.246,2.246,0,0,0,1121.077-11.116Z" transform="translate(-79.368 -190.466)" fill="#777778"/>
    <path id="Path_20" data-name="Path 20" d="M1428.821,86.321c.177.9.364,1.8.518,2.7.02.114-.109.28-.209.384-.724.757-1.458,1.5-2.188,2.255q-3.881,3.989-7.764,7.975a.253.253,0,0,0-.048.352,4.655,4.655,0,1,1-4.121-2.481,4.263,4.263,0,0,1,2.035.485.264.264,0,0,0,.373-.065q3.782-3.9,7.575-7.789,1.751-1.8,3.5-3.6a2.28,2.28,0,0,0,.191-.261Zm-16.014,15.867a2.22,2.22,0,1,0,2.219-2.236A2.236,2.236,0,0,0,1412.807,102.188Z" transform="translate(-378.516 -286.574)" fill="#777778"/>
    <path id="Path_21" data-name="Path 21" d="M1263.5-140.586c-.419.46-.785.864-1.155,1.266q-2.791,3.036-5.587,6.069a.326.326,0,0,0-.069.447,4.613,4.613,0,0,1-.589,5.084,4.678,4.678,0,0,1-5.027,1.432,4.669,4.669,0,0,1-3.194-4.009,4.643,4.643,0,0,1,5.056-5.077,6.829,6.829,0,0,1,1.649.479c.2.074.3.069.44-.084q2.774-3.033,5.553-6.06a.43.43,0,0,1,.481-.157C1261.855-140.993,1262.651-140.8,1263.5-140.586Zm-10.974,7.634a2.243,2.243,0,0,0-2.224,2.227,2.23,2.23,0,0,0,2.211,2.205,2.234,2.234,0,0,0,2.243-2.206A2.25,2.25,0,0,0,1252.529-132.951Z" transform="translate(-225.571 -72.457)" fill="#777778"/>
    <path id="Path_22" data-name="Path 22" d="M1184.746,254.157l-2.752,3.054-1.881-1.579,2.891-3.217a4.645,4.645,0,0,1,1.432-6.205,4.672,4.672,0,1,1,.31,7.948Zm4.508-4.088a2.215,2.215,0,1,0-2.206,2.233A2.233,2.233,0,0,0,1189.254,250.069Z" transform="translate(-161.804 -436.36)" fill="#777778"/>
  </g>
</svg>
