<?xml version="1.0" standalone="no"?>
<!DOCTYPE svg PUBLIC "-//W3C//DTD SVG 20010904//EN"
 "http://www.w3.org/TR/2001/REC-SVG-20010904/DTD/svg10.dtd">
<svg version="1.0" xmlns="http://www.w3.org/2000/svg"
 width="700.000000pt" height="700.000000pt" viewBox="0 0 700.000000 700.000000"
 preserveAspectRatio="xMidYMid meet">
<metadata>
Created by potrace 1.14, written by Peter Selinger 2001-2017
</metadata>
<g transform="translate(0.000000,700.000000) scale(0.100000,-0.100000)"
fill="#000000" stroke="none">
<path d="M3278 6996 c-1 -2 -41 -6 -88 -10 -47 -4 -101 -9 -120 -12 -139 -19
-252 -40 -360 -66 -69 -16 -134 -31 -145 -34 -11 -2 -75 -22 -143 -44 -1124
-369 -1977 -1259 -2296 -2395 -36 -129 -89 -400 -102 -520 -15 -144 -19 -235
-19 -425 1 -241 5 -310 35 -510 6 -41 13 -86 15 -100 10 -72 62 -282 102 -410
151 -491 403 -934 742 -1309 355 -393 779 -692 1276 -901 224 -94 613 -199
835 -226 30 -3 66 -8 80 -10 187 -27 649 -26 840 2 337 49 591 115 869 225
719 286 1319 803 1724 1485 169 284 341 730 402 1044 31 160 51 296 63 425 14
162 6 639 -13 715 -2 8 -7 39 -10 69 -4 30 -9 63 -11 75 -2 12 -7 37 -10 56
-13 79 -46 222 -75 320 -17 58 -34 119 -38 135 -12 46 -78 219 -124 325 -425
983 -1311 1734 -2352 1993 -161 41 -266 59 -525 92 -48 7 -546 16 -552 11z
m487 -100 c103 -9 140 -13 255 -31 151 -24 157 -25 315 -65 479 -123 884 -322
1285 -634 141 -110 410 -376 525 -521 22 -27 43 -52 46 -55 15 -13 174 -246
224 -330 55 -90 160 -292 204 -391 114 -258 216 -613 251 -879 6 -47 13 -96
15 -110 23 -131 23 -582 1 -750 -2 -14 -7 -48 -10 -75 -4 -28 -12 -79 -18
-115 -5 -36 -12 -74 -13 -85 -8 -49 -59 -251 -92 -360 -72 -238 -225 -582
-337 -755 -12 -19 -44 -69 -71 -110 -50 -78 -171 -243 -215 -294 -14 -17 -64
-73 -111 -125 -404 -449 -932 -784 -1519 -966 -112 -34 -385 -99 -465 -109
-22 -3 -62 -8 -90 -12 -27 -3 -58 -8 -67 -9 -37 -8 -271 -19 -383 -19 -113 0
-286 9 -365 19 -72 9 -135 17 -150 20 -8 1 -35 6 -60 10 -56 9 -54 9 -174 35
-297 65 -622 190 -906 348 -102 56 -293 178 -358 229 -463 355 -786 739 -1028
1224 -41 81 -74 150 -74 154 0 3 -12 31 -26 62 -73 161 -178 522 -209 718 -38
251 -49 376 -49 590 0 121 11 329 19 378 2 12 6 40 9 62 29 251 133 642 226
850 10 22 29 67 43 101 90 215 274 514 454 739 80 101 321 351 418 435 243
212 577 424 855 544 36 16 79 34 95 41 163 72 469 160 690 199 88 16 100 17
220 32 17 2 82 6 145 10 63 3 116 7 117 8 6 5 301 -2 378 -8z"/>
<path d="M3267 6804 c-1 -1 -38 -5 -82 -8 -151 -13 -385 -54 -525 -92 -122
-34 -286 -86 -294 -94 -7 -7 113 -354 220 -639 13 -35 24 -67 24 -70 0 -4 -33
-20 -72 -35 -106 -41 -324 -155 -440 -231 -55 -37 -104 -63 -108 -58 -8 8
-203 276 -248 340 l-22 31 97 65 c54 35 122 78 150 95 l53 32 20 -40 c11 -21
20 -41 20 -43 0 -2 -35 -25 -77 -50 -128 -75 -124 -55 -35 -189 l78 -118 70
45 c59 39 336 184 375 197 13 4 3 34 -56 173 -7 17 -41 98 -75 180 -115 277
-108 265 -138 250 -15 -8 -63 -30 -107 -50 -249 -113 -555 -313 -782 -513
l-63 -54 54 -57 c30 -31 64 -67 76 -81 12 -14 67 -74 123 -134 56 -60 129
-139 162 -175 33 -35 68 -73 78 -84 21 -21 27 -13 -84 -128 -101 -104 -191
-215 -276 -340 l-65 -96 -196 120 c-109 66 -199 121 -200 123 -5 4 76 128 142
218 l57 76 34 -27 c19 -16 35 -30 35 -33 0 -3 -25 -39 -56 -80 -31 -41 -60
-82 -64 -91 -7 -12 14 -30 100 -87 60 -40 113 -73 118 -74 4 -2 45 46 91 105
45 60 97 125 114 144 18 20 37 41 42 48 6 6 28 30 50 53 l39 42 -233 234 -233
233 -77 -81 c-206 -219 -407 -509 -549 -792 l-41 -81 332 -153 c183 -84 336
-156 341 -161 5 -5 -6 -45 -27 -96 -68 -166 -136 -399 -152 -520 -8 -61 -1
-59 -135 -38 -125 21 -138 23 -185 30 -162 24 -158 22 -150 59 3 17 8 42 11
56 2 14 16 76 30 139 l26 113 36 -5 c52 -9 56 -17 38 -87 -14 -52 -24 -99 -27
-128 -4 -23 6 -31 48 -37 27 -5 53 -9 58 -10 6 -2 37 -8 70 -14 33 -7 67 -14
77 -17 13 -4 20 12 38 88 25 110 56 211 98 326 l31 83 -22 8 c-12 5 -143 59
-292 121 -148 62 -275 114 -282 117 -14 6 -29 -28 -84 -187 -43 -124 -101
-338 -119 -435 -5 -33 -12 -70 -15 -83 -16 -86 -37 -287 -39 -381 -1 -33 3
-44 15 -46 8 -2 109 -6 225 -10 115 -4 238 -9 274 -10 36 -2 103 -4 150 -6
l85 -3 1 -121 c1 -182 17 -341 50 -498 18 -89 20 -84 -23 -92 -21 -3 -120 -26
-221 -51 -101 -24 -187 -44 -191 -44 -9 0 -28 89 -51 238 l-17 112 21 1 c12 0
33 2 47 4 25 3 25 2 43 -108 9 -62 18 -113 20 -114 1 -2 63 10 137 25 148 31
139 23 125 107 -16 100 -27 209 -32 315 -3 63 -9 117 -14 120 -5 3 -152 5
-327 5 l-318 -1 1 -114 c1 -216 34 -456 99 -720 23 -93 96 -310 104 -310 7 0
632 230 679 250 19 8 24 6 32 -15 55 -144 160 -349 248 -483 31 -48 60 -90 65
-93 5 -4 7 -11 3 -17 -13 -22 -367 -273 -376 -267 -12 7 -67 88 -138 202 l-52
83 38 24 c20 13 39 22 42 21 3 -2 32 -46 64 -98 l59 -95 111 76 c61 41 113 77
116 79 3 3 -5 21 -18 41 -73 121 -139 243 -176 325 -30 66 -46 92 -56 89 -8
-3 -136 -55 -285 -117 -148 -61 -278 -115 -288 -118 -19 -7 -22 -28 -7 -55 5
-9 33 -66 61 -127 90 -189 249 -448 351 -570 9 -11 38 -47 65 -81 26 -33 67
-82 91 -109 l42 -48 69 61 c38 34 84 77 103 94 19 18 85 80 148 138 62 58 141
131 174 162 l61 57 90 -89 c106 -105 237 -212 358 -293 48 -33 87 -62 87 -65
0 -10 -204 -342 -227 -371 l-20 -24 -79 52 c-95 64 -204 144 -203 151 0 3 12
20 27 37 l28 33 89 -65 c49 -36 91 -65 94 -65 3 0 41 52 83 115 l78 114 -93
69 c-83 62 -148 115 -272 226 l-40 35 -233 -232 -233 -232 73 -69 c165 -156
365 -307 561 -425 120 -72 316 -175 322 -169 2 2 22 44 45 93 23 50 50 108 60
130 11 22 62 132 114 245 58 126 100 204 108 203 7 -1 72 -24 143 -52 116 -44
351 -112 430 -124 78 -12 86 -17 80 -51 -25 -155 -35 -217 -40 -251 -3 -22
-11 -71 -17 -109 l-12 -68 -35 6 c-20 3 -52 8 -71 11 -46 8 -232 53 -236 58
-3 2 16 75 21 85 1 1 50 -9 110 -23 59 -14 109 -24 111 -22 5 5 54 242 54 260
0 10 -39 24 -127 46 -71 17 -177 50 -238 72 -60 22 -114 41 -119 42 -8 2 -255
-575 -256 -598 0 -12 13 -17 175 -75 150 -53 318 -96 520 -135 28 -5 130 -19
220 -30 22 -3 79 -8 128 -11 86 -6 87 -6 88 17 5 103 7 157 13 319 13 341 16
404 20 407 2 3 77 6 167 8 157 3 305 20 453 50 38 8 71 14 72 12 5 -5 104
-424 104 -440 0 -9 -4 -17 -10 -17 -15 0 -17 0 -52 -11 -48 -14 -215 -41 -263
-43 -17 -1 -20 5 -20 44 0 32 4 45 15 47 104 15 209 37 205 44 -3 4 -17 65
-30 135 -14 70 -27 129 -29 131 -2 2 -25 -1 -52 -7 -74 -15 -102 -19 -179 -26
-38 -4 -77 -8 -85 -10 -8 -1 -57 -3 -107 -3 l-93 -1 0 -332 0 -331 158 7 c86
3 168 8 182 10 14 2 52 7 85 11 33 3 107 15 165 26 58 11 116 23 130 25 14 3
33 7 42 10 10 3 28 7 41 10 35 6 223 62 288 86 l57 20 -28 76 c-16 43 -74 200
-129 351 -56 151 -98 278 -94 282 5 3 34 16 66 28 118 43 318 149 458 242 l85
57 120 -165 c65 -91 127 -177 136 -192 l17 -26 -77 -52 c-42 -28 -108 -70
-146 -93 l-69 -42 -18 23 c-28 38 -30 58 -6 73 82 50 163 99 165 101 5 4 -149
235 -156 235 -3 0 -28 -15 -56 -34 -67 -44 -234 -134 -316 -170 -36 -16 -69
-32 -73 -36 -7 -6 37 -118 178 -455 18 -44 40 -97 49 -117 8 -21 17 -38 20
-38 12 0 271 127 351 173 187 105 440 286 592 423 l33 29 -38 41 c-43 49 -103
114 -256 278 -61 66 -118 127 -126 136 -8 10 -32 35 -54 58 l-38 40 77 78
c108 111 200 221 290 349 42 61 82 109 89 107 17 -5 386 -233 386 -238 0 -14
-189 -284 -199 -284 -4 0 -21 12 -39 27 l-33 28 66 89 c36 50 65 91 65 93 0 6
-214 146 -226 147 -7 1 -43 -40 -81 -90 -66 -88 -141 -179 -193 -233 -70 -74
-89 -41 171 -302 l232 -233 72 76 c153 161 359 440 460 623 85 152 124 231
125 246 0 11 -97 60 -332 169 -183 84 -335 154 -337 156 -2 2 17 54 42 116 52
130 119 358 137 468 7 41 16 78 19 82 3 3 31 2 61 -3 30 -5 75 -12 100 -15 25
-3 52 -8 62 -9 9 -2 38 -7 65 -11 26 -5 50 -9 53 -9 3 -1 31 -5 63 -9 31 -5
57 -11 57 -15 0 -18 -23 -136 -47 -234 -21 -89 -28 -107 -41 -103 -10 3 -29 8
-44 12 -33 7 -32 6 -13 81 9 32 18 72 21 88 2 17 7 38 10 48 3 9 2 17 -3 18
-13 1 -54 8 -108 19 -51 11 -77 16 -131 26 l-30 6 -29 -114 c-15 -62 -48 -169
-72 -238 -24 -69 -45 -129 -46 -135 -2 -9 565 -253 593 -254 18 -1 23 12 85
194 39 116 85 276 99 345 2 14 10 50 16 80 6 30 13 71 16 90 3 19 7 47 10 61
4 26 9 67 18 147 3 20 8 76 11 125 l7 87 -39 1 c-80 3 -457 18 -622 24 -46 2
-86 7 -89 10 -3 3 -6 72 -7 153 -2 81 -5 170 -9 197 -4 28 -9 68 -12 90 -5 41
-21 135 -28 170 -20 93 -23 87 44 99 14 2 99 22 190 44 225 55 203 55 217 -2
7 -27 15 -66 18 -85 3 -20 10 -61 15 -91 5 -30 10 -70 12 -89 3 -34 3 -34 -44
-38 -47 -4 -48 -4 -49 24 0 15 -2 39 -5 53 -17 100 -25 134 -29 138 -4 4 -91
-12 -245 -43 -8 -2 -19 -4 -23 -4 -5 -1 -6 -13 -3 -28 24 -109 44 -298 45
-420 l1 -73 331 0 332 0 -6 153 c-4 83 -9 168 -12 187 -3 19 -7 54 -10 77 -24
199 -71 408 -141 625 l-35 107 -37 -14 c-20 -7 -178 -65 -351 -129 -173 -64
-318 -113 -321 -109 -4 5 -17 35 -30 68 -52 137 -189 385 -285 521 -14 20 -8
26 166 153 100 73 187 135 193 137 11 4 106 -132 165 -238 l32 -57 -39 -20
c-46 -24 -38 -30 -108 87 -27 45 -52 82 -55 82 -8 0 -200 -128 -218 -145 -12
-11 -7 -25 33 -87 26 -40 81 -141 123 -225 69 -140 77 -151 96 -144 47 18 563
233 574 240 24 13 -140 340 -267 531 -129 195 -317 433 -348 442 -7 3 -103
-82 -246 -217 -12 -11 -77 -72 -146 -135 -68 -63 -133 -123 -143 -134 -19 -18
-21 -16 -110 70 -50 49 -94 92 -97 95 -22 24 -196 157 -265 203 -47 31 -85 59
-85 62 0 2 40 68 88 147 49 78 101 163 116 189 15 27 32 51 37 54 8 5 210
-128 268 -176 l23 -20 -26 -35 c-15 -19 -29 -35 -31 -35 -3 0 -44 29 -92 65
-49 36 -90 65 -93 64 -7 0 -144 -210 -148 -225 -2 -7 16 -26 40 -42 76 -52
221 -171 286 -234 34 -33 65 -59 67 -57 3 2 109 107 235 234 l231 230 -78 73
c-120 113 -274 234 -428 336 -173 115 -182 120 -330 196 -120 61 -120 61 -129
38 -6 -13 -31 -68 -56 -123 -26 -55 -91 -197 -145 -315 -55 -118 -100 -217
-102 -219 -1 -2 -60 19 -130 47 -70 27 -160 59 -199 71 -82 24 -282 70 -319
73 -22 2 -25 6 -21 28 3 14 13 70 21 125 9 55 17 109 19 120 2 11 9 60 16 108
l13 88 41 -7 c53 -8 75 -12 106 -19 14 -3 34 -7 45 -9 51 -10 139 -36 146 -43
12 -12 -12 -83 -27 -83 -7 0 -23 4 -37 9 -13 5 -39 12 -59 15 -19 3 -41 7 -49
10 -8 2 -26 7 -40 10 -28 6 -26 12 -55 -139 -2 -11 -9 -44 -15 -73 -6 -30 -9
-55 -7 -57 1 -2 67 -20 145 -40 78 -20 187 -53 242 -74 109 -41 108 -42 131
19 7 19 19 49 26 65 30 69 196 471 197 479 3 15 -350 139 -460 160 -10 2 -47
11 -83 19 -36 8 -99 20 -140 27 -41 7 -84 14 -95 16 -11 2 -42 6 -70 9 -27 3
-66 8 -85 10 -19 2 -72 7 -117 10 l-83 6 -1 -43 c-1 -24 -2 -68 -4 -98 -1 -30
-5 -143 -9 -251 -10 -276 -14 -351 -20 -357 -3 -3 -74 -6 -158 -8 -84 -1 -166
-4 -183 -7 -16 -3 -57 -9 -90 -12 -33 -3 -105 -15 -159 -25 -55 -11 -101 -19
-102 -17 -3 4 -104 433 -104 443 0 6 26 17 58 24 90 20 282 48 286 41 2 -3 6
-24 7 -46 l4 -39 -110 -19 c-60 -10 -111 -19 -112 -21 -2 -2 6 -50 17 -107 29
-145 28 -142 29 -157 1 -9 10 -12 29 -8 75 15 118 21 222 31 41 4 82 9 90 11
8 1 52 3 98 3 l82 1 0 331 0 330 -116 -3 c-63 -1 -116 -3 -117 -4z m104 -98
c2 -16 5 -96 14 -293 l7 -173 -59 -1 c-32 0 -69 -2 -83 -4 -14 -2 -50 -6 -80
-9 -30 -3 -65 -8 -77 -10 -19 -4 -23 1 -29 40 -3 25 -5 47 -2 49 6 6 132 22
189 24 28 1 28 2 14 156 -2 22 -4 60 -4 84 l-1 44 -72 -7 c-117 -10 -260 -34
-400 -66 -72 -16 -132 -31 -134 -33 -1 -1 38 -144 88 -318 l90 -315 69 17 c37
10 88 21 111 24 23 4 45 8 48 10 8 5 157 25 236 31 38 3 142 6 231 5 181 0
170 -6 173 79 0 25 3 61 5 80 2 19 6 82 10 140 4 58 9 112 10 121 2 9 6 65 10
125 4 60 9 120 10 134 2 14 4 35 4 48 1 22 4 23 49 18 26 -3 70 -9 97 -12 28
-3 73 -9 100 -14 28 -5 66 -12 85 -14 153 -24 530 -131 530 -151 0 -11 -153
-420 -160 -428 -4 -4 -20 -3 -36 3 -16 7 -83 27 -148 46 -65 18 -120 35 -122
37 -3 3 16 77 22 85 2 3 61 -12 181 -47 l32 -9 40 124 c23 68 41 130 41 137 0
8 -10 17 -22 20 -13 2 -86 21 -162 41 -183 47 -400 84 -409 69 -3 -4 -8 -39
-12 -78 -4 -38 -8 -83 -11 -100 -2 -16 -6 -52 -9 -80 -3 -27 -10 -84 -15 -125
-5 -41 -12 -95 -14 -120 -3 -25 -8 -66 -11 -92 -6 -54 -13 -50 105 -68 94 -15
108 -17 211 -44 166 -44 349 -110 460 -166 23 -12 45 -18 49 -13 4 4 80 152
170 328 89 176 164 322 167 324 8 9 169 -78 278 -151 159 -105 298 -211 405
-306 l44 -40 -109 -117 c-61 -65 -133 -143 -161 -173 l-50 -55 -96 81 c-53 44
-108 88 -122 97 -32 21 -32 30 -1 71 23 30 27 32 43 19 9 -7 45 -36 79 -64 34
-28 66 -52 71 -53 13 -4 183 194 179 207 -9 28 -314 249 -443 321 -41 23 -49
24 -58 12 -24 -32 -308 -547 -306 -555 0 -4 13 -15 28 -23 59 -33 252 -167
322 -223 41 -33 129 -115 195 -182 l120 -121 283 243 c156 134 285 243 287
243 8 0 149 -185 217 -285 97 -142 198 -319 246 -428 l12 -28 -88 -40 c-48
-23 -116 -55 -152 -71 -36 -17 -92 -43 -126 -58 l-60 -28 -47 92 c-26 50 -60
114 -77 143 l-29 51 35 21 c19 12 39 21 43 21 4 0 31 -42 61 -94 l53 -95 116
61 c64 33 120 62 124 65 26 16 -300 520 -329 509 -7 -3 -125 -93 -262 -202
l-249 -197 42 -56 c140 -187 275 -440 341 -643 11 -32 24 -58 30 -58 9 0 279
86 640 204 l71 24 11 -32 c15 -43 80 -293 87 -336 3 -19 10 -60 15 -90 6 -30
13 -75 16 -100 3 -25 7 -56 10 -70 2 -14 7 -75 10 -136 l6 -111 -48 0 c-27 0
-133 -3 -236 -7 l-188 -8 -1 49 c-1 63 -7 123 -18 203 -5 36 -7 67 -5 69 7 7
85 18 88 12 4 -6 10 -50 22 -151 8 -67 9 -70 35 -65 25 5 208 18 233 17 17 -1
18 5 12 71 -3 40 -8 81 -10 92 -2 11 -7 42 -10 68 -11 80 -72 363 -80 374 -4
5 -623 -170 -631 -179 -2 -2 7 -46 20 -98 24 -95 27 -115 45 -245 17 -126 22
-208 21 -347 0 -75 -1 -140 -2 -145 -4 -21 3 -29 24 -30 28 -1 238 -12 340
-18 105 -6 235 -16 272 -20 17 -2 50 -4 74 -4 l43 -1 -6 -72 c-4 -40 -9 -82
-11 -93 -2 -11 -6 -38 -9 -60 -3 -22 -7 -49 -10 -60 -2 -11 -7 -40 -11 -65
-24 -151 -129 -510 -149 -510 -9 0 -425 148 -433 154 -1 1 15 58 37 126 21 69
41 138 44 153 7 27 9 28 49 22 23 -4 44 -9 47 -12 2 -2 -6 -43 -19 -91 -38
-140 -40 -126 26 -145 32 -10 91 -28 131 -41 68 -23 73 -23 82 -7 10 19 75
271 85 331 4 19 13 71 21 115 25 144 29 139 -91 150 -93 9 -202 21 -265 30
-14 2 -52 6 -85 10 -33 4 -89 10 -125 14 -36 5 -66 8 -67 7 -1 0 -9 -46 -18
-101 -25 -154 -87 -392 -125 -480 -4 -11 -29 -67 -55 -125 -25 -58 -47 -109
-48 -114 -1 -5 63 -42 143 -83 377 -193 515 -264 519 -268 4 -5 -96 -185 -158
-280 -102 -159 -321 -435 -344 -435 -6 0 -44 31 -83 68 -39 37 -115 107 -168
156 -53 49 -93 92 -89 95 15 11 130 148 163 195 19 25 36 46 39 46 3 0 21 -13
40 -29 l35 -29 -55 -68 c-29 -38 -59 -75 -66 -82 -7 -7 -13 -17 -13 -21 0 -5
33 -36 73 -69 39 -33 85 -72 100 -86 16 -13 34 -23 40 -20 25 10 250 323 320
446 l27 47 -42 24 c-57 33 -272 154 -328 185 -25 14 -80 45 -123 69 -44 25
-80 43 -82 41 -1 -2 -26 -41 -55 -88 -92 -149 -221 -311 -358 -449 -117 -118
-131 -135 -119 -150 27 -33 132 -156 142 -167 6 -6 30 -35 55 -64 25 -29 50
-58 55 -64 6 -6 35 -40 65 -76 30 -36 57 -67 60 -70 32 -31 90 -112 86 -119
-9 -13 -156 -127 -251 -193 -185 -128 -466 -281 -484 -263 -11 12 -191 402
-190 413 0 4 28 20 62 37 34 16 97 49 140 74 42 24 79 42 80 40 2 -2 13 -20
26 -41 l22 -36 -93 -53 c-51 -29 -95 -54 -97 -56 -8 -6 112 -235 125 -240 23
-9 266 137 426 255 75 56 85 67 75 81 -7 9 -48 61 -91 116 -44 55 -131 164
-193 243 l-113 142 -75 -55 c-162 -120 -424 -260 -600 -321 -44 -15 -82 -29
-84 -30 -2 -2 7 -33 19 -71 35 -111 202 -627 207 -638 4 -12 -67 -39 -162 -61
-296 -68 -407 -86 -607 -100 l-98 -6 -1 48 c-1 27 -3 78 -4 114 -2 36 -6 120
-8 187 -5 120 -4 123 17 124 58 2 196 15 262 25 l41 5 6 -43 c3 -26 1 -45 -5
-49 -10 -6 -129 -21 -183 -23 -18 -1 -20 -8 -19 -76 1 -97 6 -182 12 -197 5
-16 115 -7 282 24 47 8 94 17 105 19 54 10 201 47 207 53 4 4 -32 146 -80 316
-65 228 -92 310 -103 309 -8 -1 -81 -15 -164 -32 -191 -40 -298 -49 -513 -48
-165 1 -172 0 -173 -19 -2 -34 -6 -87 -13 -170 -4 -44 -9 -107 -11 -140 -3
-33 -7 -86 -10 -118 -2 -32 -7 -103 -11 -157 -9 -156 -5 -149 -81 -139 -32 4
-83 10 -113 14 -58 7 -89 12 -130 20 -14 3 -41 8 -60 11 -142 23 -494 129
-487 147 2 7 37 102 77 212 41 110 77 204 81 209 4 5 50 -5 106 -22 124 -39
186 -56 196 -54 10 3 9 -16 -4 -61 -8 -31 -14 -37 -29 -32 -46 15 -194 54
-196 52 -3 -5 -84 -253 -84 -259 0 -11 224 -74 325 -92 17 -3 41 -8 55 -11 39
-8 141 -24 183 -29 32 -3 37 -1 38 18 0 11 2 28 4 37 1 9 6 47 9 85 4 38 8 80
10 94 3 14 7 52 11 85 3 33 8 74 10 90 10 69 14 104 21 173 6 71 6 72 -17 73
-33 1 -70 7 -162 25 -42 8 -89 18 -104 20 -15 3 -29 7 -33 9 -3 2 -42 13 -86
25 -88 24 -274 94 -352 134 -28 14 -56 26 -61 26 -5 0 -53 -87 -107 -192 -124
-247 -235 -462 -241 -468 -10 -10 -205 103 -358 208 -103 70 -238 175 -329
255 l-39 35 54 58 c30 32 63 68 74 79 11 12 58 63 105 113 46 51 87 92 90 92
3 0 25 -19 50 -41 25 -23 80 -68 122 -101 l77 -61 -26 -33 c-14 -19 -29 -34
-33 -34 -4 0 -38 24 -75 52 -37 29 -75 58 -84 65 -14 10 -28 -3 -101 -88 -47
-56 -86 -105 -88 -109 -11 -29 477 -365 498 -344 5 5 67 113 137 239 71 127
141 251 156 276 l28 47 -98 60 c-89 55 -226 154 -313 227 -19 16 -86 80 -148
143 l-112 114 -68 -55 c-37 -31 -76 -64 -87 -74 -26 -23 -281 -243 -359 -308
l-58 -49 -22 25 c-11 15 -28 35 -36 45 -8 11 -31 40 -51 64 -100 127 -233 338
-317 506 l-51 101 137 63 c75 35 169 78 209 96 39 19 75 34 80 34 5 0 17 -19
28 -42 10 -24 42 -86 71 -137 29 -52 51 -98 48 -102 -2 -4 -19 -16 -38 -27
l-35 -21 -44 77 c-24 42 -47 85 -50 95 -4 9 -11 17 -18 17 -6 0 -64 -28 -129
-61 l-119 -62 31 -56 c61 -111 83 -148 153 -251 94 -141 138 -199 150 -200 6
0 73 50 150 111 77 61 191 152 253 201 l112 90 -28 36 c-116 147 -291 468
-347 635 -17 48 -34 87 -39 87 -6 0 -71 -20 -146 -44 -320 -105 -517 -169
-542 -176 -26 -8 -27 -6 -47 60 -25 81 -76 296 -86 360 -4 25 -9 52 -10 61 -3
17 -9 64 -24 184 -4 39 -8 99 -7 135 l1 64 60 2 c33 1 138 5 233 9 l172 7 1
-44 c2 -65 13 -183 25 -250 4 -29 -3 -33 -66 -40 -27 -3 -27 -1 -45 147 -7 62
-12 78 -23 71 -4 -2 -52 -7 -107 -11 -90 -7 -121 -10 -149 -14 -7 -1 -2 -96 9
-150 2 -10 6 -42 10 -72 4 -30 8 -56 10 -59 2 -3 6 -27 9 -55 9 -61 55 -247
64 -257 7 -6 614 161 625 172 3 3 -5 50 -19 104 -13 55 -26 118 -30 140 -24
155 -31 255 -32 425 l-1 195 -28 1 c-74 5 -231 17 -258 20 -16 2 -70 7 -120
10 -81 5 -161 11 -271 20 -21 2 -47 4 -57 4 -13 1 -16 7 -13 29 2 15 7 54 11
87 3 33 13 101 21 150 8 50 17 104 20 120 17 102 116 449 134 468 7 8 415
-137 434 -153 4 -5 -3 -44 -17 -87 -14 -43 -33 -107 -43 -143 -9 -36 -20 -68
-23 -72 -5 -6 -79 8 -88 16 -2 2 35 144 51 192 6 20 -3 25 -125 64 -72 23
-135 38 -139 33 -28 -32 -140 -558 -125 -583 3 -5 36 -11 73 -15 37 -4 78 -8
92 -10 14 -2 50 -7 80 -10 30 -4 71 -8 90 -11 19 -2 60 -6 90 -9 30 -3 69 -7
85 -10 17 -3 57 -7 88 -10 57 -5 57 -5 58 22 1 42 7 77 35 203 41 191 99 365
174 524 18 37 28 71 24 76 -5 4 -153 81 -329 171 -176 89 -322 164 -325 166
-10 9 126 245 208 363 46 66 168 226 187 246 5 6 30 34 54 63 24 28 47 50 52
49 8 -3 156 -139 273 -249 l69 -65 -81 -96 c-44 -53 -88 -108 -97 -122 -10
-14 -21 -26 -27 -26 -14 0 -68 43 -68 54 1 6 30 47 65 91 l65 80 -28 25 c-15
14 -56 50 -92 80 -36 30 -66 58 -68 63 -7 15 -29 6 -54 -20 -101 -110 -330
-456 -312 -473 5 -4 133 -77 286 -162 l276 -155 59 94 c96 157 211 300 354
445 l135 137 -79 93 c-44 51 -103 120 -131 152 -28 32 -102 118 -163 190
l-113 131 43 38 c58 51 242 183 359 256 127 80 340 189 345 176 2 -5 46 -102
98 -214 52 -112 94 -205 93 -206 -2 -1 -57 -30 -123 -65 -66 -34 -129 -69
-139 -76 -18 -12 -22 -10 -42 24 -13 20 -24 40 -24 44 0 4 42 30 94 58 l95 51
-18 37 c-20 44 -102 206 -106 210 -5 5 -103 -47 -200 -105 -92 -56 -315 -212
-315 -221 0 -7 391 -507 400 -510 4 -2 50 27 101 63 207 147 426 259 642 329
9 3 17 11 17 18 0 7 -21 76 -46 153 -107 329 -174 541 -174 551 0 12 10 15
220 69 137 34 361 71 499 82 42 3 77 6 78 7 9 7 63 1 64 -8z"/>
<path d="M3250 5840 c-25 -4 -67 -10 -95 -13 -27 -3 -93 -15 -145 -26 -375
-83 -730 -254 -1015 -491 -74 -61 -297 -292 -352 -365 -232 -307 -388 -649
-453 -995 -13 -70 -14 -75 -24 -165 -4 -33 -9 -73 -11 -90 -6 -48 -6 -355 1
-405 34 -262 56 -364 113 -532 71 -210 146 -366 259 -538 259 -397 620 -701
1052 -885 136 -58 343 -122 450 -140 19 -3 46 -8 60 -10 14 -3 34 -7 45 -9 18
-3 106 -14 180 -22 95 -10 428 -2 475 11 8 2 42 7 75 11 33 3 62 7 66 9 3 2
21 7 40 10 75 13 240 60 349 101 553 204 1013 616 1279 1145 102 201 181 438
215 644 9 55 21 122 25 148 16 94 10 462 -10 594 -44 290 -119 523 -250 773
-250 477 -680 868 -1179 1073 -146 60 -329 116 -436 133 -21 3 -41 7 -44 9 -3
2 -33 7 -65 10 -33 4 -79 10 -102 15 -55 10 -444 10 -503 0z m530 -99 c41 -7
91 -14 110 -16 68 -9 276 -64 371 -98 314 -114 595 -293 834 -532 187 -186
320 -373 435 -610 99 -204 172 -434 200 -630 6 -44 14 -91 16 -105 9 -46 12
-384 4 -455 -13 -110 -21 -169 -25 -185 -2 -8 -7 -31 -10 -50 -23 -143 -115
-411 -197 -575 -334 -665 -990 -1129 -1734 -1226 -111 -14 -395 -19 -494 -8
-107 12 -163 19 -180 24 -8 2 -31 7 -50 10 -217 36 -525 158 -740 290 -168
104 -278 192 -425 340 -247 247 -428 544 -543 890 -31 94 -77 288 -86 365 -3
25 -9 70 -13 100 -16 129 -7 454 16 576 5 27 12 68 16 92 3 23 21 98 40 167
218 796 875 1419 1685 1598 110 25 153 32 285 47 89 10 399 4 485 -9z"/>
<path d="M2425 4903 c2 -192 4 -350 4 -353 1 -3 347 -6 770 -6 424 0 773 -2
776 -5 3 -4 -35 -91 -86 -195 -50 -104 -115 -238 -144 -299 -29 -60 -87 -182
-130 -270 -43 -88 -99 -205 -125 -260 -26 -55 -87 -181 -135 -280 -48 -99
-113 -234 -145 -300 -32 -66 -90 -187 -130 -270 -73 -151 -157 -325 -255 -530
-29 -60 -94 -195 -144 -299 -50 -104 -91 -192 -91 -195 0 -4 185 -6 412 -6
l411 0 76 155 c42 86 108 223 148 305 39 83 117 244 172 359 56 115 101 210
101 211 0 2 29 63 64 137 116 244 176 370 176 373 0 2 26 59 59 127 54 115 73
154 135 291 43 94 123 271 146 322 12 28 32 73 45 100 101 225 199 471 216
541 6 27 13 58 15 69 14 56 13 215 -1 268 -48 185 -189 310 -388 342 -65 11
-281 14 -1019 15 l-937 0 4 -347z"/>
</g>
</svg>
